<svg xmlns="http://www.w3.org/2000/svg" xmlns:xlink="http://www.w3.org/1999/xlink" width="280" height="100" viewBox="0 0 280 100">
  <defs>
    <clipPath id="clip-Artboard_1">
      <rect width="280" height="100"/>
    </clipPath>
  </defs>
  <g id="Artboard_1" data-name="Artboard – 1" clip-path="url(#clip-Artboard_1)">
    <g id="Group_1" data-name="Group 1" transform="translate(0 1.455)">
      <path id="Path_1" data-name="Path 1" d="M58.475,6.076a5.328,5.328,0,0,0-.429-2.111,5.708,5.708,0,0,0-1.2-1.8,5.625,5.625,0,0,0-1.8-1.2A5.246,5.246,0,0,0,52.94.545a5.159,5.159,0,0,0-2.115.411,5.276,5.276,0,0,0-1.686,1.166,6.054,6.054,0,0,0-1.21,1.853A5.328,5.328,0,0,0,47.5,6.086V45.733a17.416,17.416,0,0,1-5.449,13.041A18.023,18.023,0,0,1,29.19,64.009a18.022,18.022,0,0,1-12.861-5.235l-.1-.105a18.22,18.22,0,0,1-5.259-12.935,5.329,5.329,0,0,0-.429-2.111,5.706,5.706,0,0,0-1.2-1.8,5.474,5.474,0,0,0-1.8-1.2,5.234,5.234,0,0,0-2.1-.42,5.157,5.157,0,0,0-2.115.411,5.384,5.384,0,0,0-1.686,1.165,6.054,6.054,0,0,0-1.21,1.853A5.3,5.3,0,0,0,0,45.743a28.141,28.141,0,0,0,8.536,20.8A27.847,27.847,0,0,0,29.18,75.1a27.847,27.847,0,0,0,20.644-8.56,28.155,28.155,0,0,0,8.631-20.8V6.076Z" fill="#f27f00"/>
      <path id="Path_2" data-name="Path 2" d="M166.08,63a5.542,5.542,0,0,0,1.81-1.213,5.633,5.633,0,0,0,1.228-1.815,5.263,5.263,0,0,0,.41-2.14V32.4a28.159,28.159,0,0,0-8.706-20.9,29.247,29.247,0,0,0-41.728-.019,28.294,28.294,0,0,0-8.632,20.913V57.818a5.205,5.205,0,0,0,1.64,3.946,5.092,5.092,0,0,0,3.848,1.643,5.609,5.609,0,0,0,2.22-.43,5.388,5.388,0,0,0,1.772-1.175,5.627,5.627,0,0,0,1.6-4V32.368A18.435,18.435,0,0,1,139.958,13.9a17.862,17.862,0,0,1,13.07,5.455,17.863,17.863,0,0,1,5.44,13.012V57.8a5.2,5.2,0,0,0,1.638,3.946,5.1,5.1,0,0,0,3.85,1.643,5.344,5.344,0,0,0,2.124-.43Z" transform="translate(110.462 2.188)" fill="#f27f00"/>
      <path id="Path_3" data-name="Path 3" d="M33.622,36.663a35.108,35.108,0,0,0,.915,4.911,33.6,33.6,0,0,0,1.715,4.567A30.436,30.436,0,0,0,63.86,63.823,28.284,28.284,0,0,0,80,58.349,64.509,64.509,0,0,0,92.354,46.57c3.544-4.261,7.04-8.885,9.851-12.611l.238-.315c.543-.717,1.077-1.424,1.62-2.13l.391-.5A74.1,74.1,0,0,1,116.19,18.492,30.224,30.224,0,0,1,121.973,15a20.73,20.73,0,0,1,4-1.108,22.093,22.093,0,0,1,4.344.038,24.326,24.326,0,0,1,4.9,1.318,24.829,24.829,0,0,1,4.478,2.608,24.488,24.488,0,0,1,3.439,3.449,24.5,24.5,0,0,1,2.582,4.433,25.221,25.221,0,0,1,1.343,5.006,24.9,24.9,0,0,1,0,5.054,25.337,25.337,0,0,1-1.305,4.911,25.36,25.36,0,0,1-2.6,4.5,24.478,24.478,0,0,1-3.439,3.449,24.685,24.685,0,0,1-4.411,2.589,24.943,24.943,0,0,1-4.983,1.347,22.874,22.874,0,0,1-4.268.048,21.56,21.56,0,0,1-4.011-1.1,30.461,30.461,0,0,1-5.678-3.43,58.494,58.494,0,0,1-7.164-7,5.53,5.53,0,0,0-3.925-1.643,5.532,5.532,0,0,0-3.925,9.429c5.011,5.656,9.508,9.382,14.157,11.741a32.423,32.423,0,0,0,4.8,1.987,27.467,27.467,0,0,0,5.135,1.013,27.9,27.9,0,0,0,8.869-.564,30.865,30.865,0,0,0,22.864-21.725,30.89,30.89,0,0,0-8.917-30.7,30.149,30.149,0,0,0-14.624-7.337,33.561,33.561,0,0,0-4.925-.564,27.737,27.737,0,0,0-4.8.334,27.048,27.048,0,0,0-7.821,2.5,37.5,37.5,0,0,0-7.05,4.567,52.17,52.17,0,0,0-5.716,5.226A138.312,138.312,0,0,0,93.155,27.74c-.6.8-1.2,1.6-1.81,2.4-.5.65-1.01,1.3-1.515,1.959A125.165,125.165,0,0,1,79.084,44.764c-1.286,1.271-2.534,2.388-3.773,3.392a31.178,31.178,0,0,1-5.668,3.42,21.154,21.154,0,0,1-3.925,1.089,22,22,0,0,1-4.335-.038A25.042,25.042,0,0,1,56.5,51.318a24.835,24.835,0,0,1-4.477-2.608,26.16,26.16,0,0,1-3.449-3.449,24.755,24.755,0,0,1-2.582-4.423,25.3,25.3,0,0,1-1.343-5,24.9,24.9,0,0,1,0-5.054,25.244,25.244,0,0,1,1.305-4.9,24.937,24.937,0,0,1,2.6-4.49,24.467,24.467,0,0,1,3.439-3.449,24.4,24.4,0,0,1,4.42-2.589,24.949,24.949,0,0,1,4.982-1.347,21.328,21.328,0,0,1,4.268-.038A20.961,20.961,0,0,1,69.719,15.1a30.738,30.738,0,0,1,5.792,3.5,58.462,58.462,0,0,1,7.126,6.936,5.529,5.529,0,0,0,3.925,1.643,5.643,5.643,0,0,0,3.925-1.643,5.763,5.763,0,0,0,.162-7.652l-.162-.191a62.542,62.542,0,0,0-6.659-6.563,39.261,39.261,0,0,0-8.2-5.484A28.847,28.847,0,0,0,65.26,2.824c-.552-.038-1.115-.057-1.7-.057a30.063,30.063,0,0,0-7.288.965,30.438,30.438,0,0,0-22.3,23.836,30.888,30.888,0,0,0-.343,9.124Z" transform="translate(33.436 2.192)" fill="#f7ad19"/>
      <path id="Path_4" data-name="Path 4" d="M111.186,37.813A11.092,11.092,0,0,0,100.154,48.9V57.36a2.507,2.507,0,0,0,.772,1.863,2.451,2.451,0,0,0,1.83.774,2.646,2.646,0,0,0,1.038-.2,2.559,2.559,0,0,0,.838-.554,2.6,2.6,0,0,0,.754-1.872V48.914a5.8,5.8,0,0,1,9.916-4.1,5.656,5.656,0,0,1,1.716,4.1v8.455a2.516,2.516,0,0,0,.732,1.825l.038.038a2.444,2.444,0,0,0,1.82.774,2.612,2.612,0,0,0,1.01-.2,2.464,2.464,0,0,0,.848-.573,2.7,2.7,0,0,0,.572-.841,2.531,2.531,0,0,0,.2-1.022V48.914a11.157,11.157,0,0,0-11.06-11.092Z" transform="translate(100.154 37.268)" fill="#f7ad19"/>
      <path id="Path_5" data-name="Path 5" d="M123.428,37.813A11.092,11.092,0,0,0,112.4,48.9a10.776,10.776,0,0,0,3.23,7.853,11.017,11.017,0,0,0,15.6,0,10.819,10.819,0,0,0,3.26-7.853,11.16,11.16,0,0,0-11.062-11.092Zm5.83,11.092a5.534,5.534,0,0,1-1.724,4.146,5.878,5.878,0,0,1-8.2.009,5.84,5.84,0,0,1-1.706-4.156,5.816,5.816,0,0,1,11.632,0Z" transform="translate(112.396 37.268)" fill="#f7ad19"/>
      <path id="Path_6" data-name="Path 6" d="M154.638,39.174a2.314,2.314,0,0,0-1.714-.716,2.475,2.475,0,0,0-.972.191,2.341,2.341,0,0,0-1.3,1.29,2.275,2.275,0,0,0-.172.793V51.049a3.978,3.978,0,0,1-2.59,3.688,2.965,2.965,0,0,1-.554.172l-.162.029h-.066a1.8,1.8,0,0,1-.266.038h-.078a1.735,1.735,0,0,1-.628,0l-.228-.019a2.6,2.6,0,0,1-.382-.067,3.277,3.277,0,0,1-.372-.115,3.949,3.949,0,0,1-2.724-3.726V40.9l.028-.029-.028-.516h-.056V40.35a2.108,2.108,0,0,0-.078-.268l-.038-.1a2.26,2.26,0,0,0-.532-.793,2.315,2.315,0,0,0-1.716-.717,2.61,2.61,0,0,0-.99.191,2.34,2.34,0,0,0-1.3,1.29,2.386,2.386,0,0,0-.124.449l-.028.21-.02.134v.067l-.008.143V51.069a3.962,3.962,0,0,1-2.574,3.688,3,3,0,0,1-.562.172c-.046.01-.094.019-.162.029h-.066a1.753,1.753,0,0,1-.266.038h-.076a1.737,1.737,0,0,1-.63,0l-.228-.019a2.626,2.626,0,0,1-.382-.067,2.674,2.674,0,0,1-.37-.115,3.948,3.948,0,0,1-2.726-3.726v-10.4a2.265,2.265,0,0,0-.7-1.462,2.308,2.308,0,0,0-1.706-.717,2.4,2.4,0,0,0-.942.191,2.542,2.542,0,0,0-.8.526,2.34,2.34,0,0,0-.532.783,2.277,2.277,0,0,0-.182.936v7.891c0,2.675.268,6.009,2.316,8.025,1.942,1.949,3.552,2.57,6.6,2.57a8.128,8.128,0,0,0,6.22-2.226l.238-.21.238.21a8.1,8.1,0,0,0,6.222,2.226c3.038,0,4.64-.621,6.6-2.57,2.02-2,2.286-5.178,2.286-8.025V40.923a2.305,2.305,0,0,0-.724-1.72Z" transform="translate(124.638 37.913)" fill="#f7ad19"/>
      <path id="Path_7" data-name="Path 7" d="M111.115,13.523a5.478,5.478,0,1,0-10.956,0V52.836a5.478,5.478,0,1,0,10.956,0Z" transform="translate(100.159 7.485)" fill="#f27f00"/>
      <path id="Path_8" data-name="Path 8" d="M110.98,7.326a5.489,5.489,0,1,0-6.6,4.092A5.5,5.5,0,0,0,110.98,7.326Z" transform="translate(100.15 0.013)" fill="#f27f00"/>
    </g>
  </g>
</svg>
